# xmcd
#
# Track frame offsets:
# 150
# 17928
# 31006
# 43906
# 58736
# 73483
# 88160
# 102488
# 116936
# 127873
#
# Disc length: 1883 seconds
#
#
# Revision: 0
# Processed by: cddbd v1.5.1PL2 Copyright (c) Steve Scherf et al.
# Submitted via: FreeRIP 2.945 
#
DISCID=9307590a
DTITLE=Zuza - Tudo Por Você
DYEAR=1900
DGENRE=Sertanejo
TTITLE0=Tudo por você
TTITLE1=Escuridão total
TTITLE2=É só prazer
TTITLE3=Taça de vinho
TTITLE4=Menina sereia
TTITLE5=Indeciso
TTITLE6=Luz na Estrada
TTITLE7=Procurando
TTITLE8=Um wiski pra nós
TTITLE9=Metade do mundo
EXTD=
EXTT0=
EXTT1=
EXTT2=
EXTT3=
EXTT4=
EXTT5=
EXTT6=
EXTT7=
EXTT8=
EXTT9=
PLAYORDER=
